<?xml version="1.0" encoding="UTF-8"?>
<svg width="36" height="36" viewBox="0 0 36 36" fill="none" xmlns="http://www.w3.org/2000/svg">
  <path fill-rule="evenodd" clip-rule="evenodd" d="M18 4C10.268 4 4 10.268 4 18C4 25.732 10.268 32 18 32C25.732 32 32 25.732 32 18C32 10.268 25.732 4 18 4ZM10 18C10 13.582 13.582 10 18 10V26C13.582 26 10 22.418 10 18ZM18 28C14.686 28 11.772 26.314 10.172 23.828C11.772 26.314 14.686 28 18 28ZM25.828 23.828C24.228 26.314 21.314 28 18 28C21.314 28 24.228 26.314 25.828 23.828ZM26 18C26 22.418 22.418 26 18 26V10C22.418 10 26 13.582 26 18Z" fill="black"/>
</svg>
